<svg xmlns="http://www.w3.org/2000/svg" width="327" height="174">
    <path fill="#FFF" fill-rule="evenodd" stroke="#34E5DA" d="M272.711 63.043h-.679c-4.561-33.149-32.085-58.635-65.3-58.635-17.155 0-32.802 6.802-44.528 17.981-9.613-13.29-24.921-21.89-42.189-21.89-23.973 0-44.209 16.59-50.639 39.293a62.583 62.583 0 0 0-4.784-.203C29.194 39.589.498 69.341.498 106.042c0 36.7 28.696 66.452 64.094 66.452 2.14 0 4.253-.114 6.34-.326 1.881.21 3.79.326 5.725.326h196.054c29.144 0 52.784-24.51 52.784-54.726 0-30.216-23.64-54.725-52.784-54.725z"/>
</svg>
