<svg xmlns="http://www.w3.org/2000/svg" width="63" height="63" viewBox="0 0 63 63">
    <g fill="none" fill-rule="evenodd">
        <circle cx="31.5" cy="31.5" r="29.5" stroke="#5EA300" stroke-width="4"/>
        <path fill="#5EA300" d="M46 23.229a5.002 5.002 0 0 1 0 9.542V48.5a1.5 1.5 0 0 1-3 0V32.771a5.002 5.002 0 0 1 0-9.542V15.5a1.5 1.5 0 0 1 3 0v7.729zm-13 10a5.002 5.002 0 0 1 0 9.542V48.5a1.5 1.5 0 0 1-3 0v-5.729a5.002 5.002 0 0 1 0-9.542V15.5a1.5 1.5 0 0 1 3 0v17.729zm-13-13a5.002 5.002 0 0 1 0 9.542V48.5a1.5 1.5 0 0 1-3 0V29.771a5.002 5.002 0 0 1 0-9.542V15.5a1.5 1.5 0 0 1 3 0v4.729z"/>
    </g>
</svg>
