<?xml version="1.0" encoding="utf-8"?>
<!-- Generator: Adobe Illustrator 22.1.0, SVG Export Plug-In . SVG Version: 6.00 Build 0)  -->
<svg version="1.1" id="Layer_1" xmlns="http://www.w3.org/2000/svg" xmlns:xlink="http://www.w3.org/1999/xlink" x="0px" y="0px"
	 width="49px" height="17px" viewBox="0 0 49 17" style="enable-background:new 0 0 49 17;" xml:space="preserve">
<style type="text/css">
	.st0{fill:#FFCA05;}
	.st1{fill:#E7B809;}
	.st2{fill:#00AEEF;}
</style>
<title>8AB8B629-4D98-45C6-8303-8E7BE6968009</title>
<desc>Created with sketchtool.</desc>
<g id="_x30_1-Logos-_x2F_-IXL" transform="translate(5.000000, 4.000000)">
	<g id="logo">
		<polygon id="path23_fill" class="st0" points="27,13 43,13 43,8.8 34.6,8.8 34.6,-4 27,-4 		"/>
		<polygon id="path24_fill" class="st0" points="3.8,13 12.8,13 17.4,7.2 21.8,13 31.5,13 23.3,4.3 31.3,-4 22.1,-4 17.9,1.3
			13.8,-4 4,-4 11.8,4.3 		"/>
		<path id="path26_fill" class="st1" d="M27,13h4.5L27,8.2V13z M31.3-4H27v4.5L31.3-4z"/>
		<polygon id="path25_fill" class="st2" points="2.1,-4 -5,-4 -5,13 2.1,13 		"/>
	</g>
</g>
</svg>
