<svg id="Layer_1" data-name="Layer 1" xmlns="http://www.w3.org/2000/svg" width="25" height="25" viewBox="0 0 25 25">
  <defs>
    <style>
      .cls-1 {
        fill: #ae0019;
      }

      .cls-2 {
        fill: #fff;
      }
    </style>
  </defs>
  <title>pintesest</title>
  <circle class="cls-1" cx="12.5" cy="12.5" r="12.5"/>
  <path id="P" class="cls-2" d="M12.494,4.2C6.978,4.2,3.75,8.3,3.75,11.6c0,2.017,1.345,4.035,2.018,4.035s1.345,0,1.345-.672S5.768,13.613,5.768,11.6c0-2.96,3.228-5.381,6.726-5.381A4.443,4.443,0,0,1,17.2,10.923c0,3.363-1.816,6.053-4.036,6.053-1.21,0-2.286-.807-2.017-2.017.336-1.48.672-1.346,1.345-4.036A1.533,1.533,0,0,0,11.149,8.9,2.69,2.69,0,0,0,8.458,11.6a3.934,3.934,0,0,0,.673,2.017s-1.48,5.314-1.749,6.256c-.4,1.816-1.009,4.506-.336,4.506S8.458,23.03,9.8,19.667c.2-.471.673-2.018.673-2.018.4.74,2.085,1.345,3.363,1.345,3.7,0,6.053-3.5,6.053-8.071C19.892,7.493,16.933,4.2,12.494,4.2Z"/>
</svg>
