<svg id="_-ge-ribbon" data-name=" -ge-ribbon" xmlns="http://www.w3.org/2000/svg" width="89" height="94" viewBox="0 0 89 94">
  <title>ribbon</title>
  <path id="Rectangle_2_copy" data-name="Rectangle 2 copy" d="M37,0,89,55V94L0,0Z" fill="#f9e8d0"/>
  <g style="isolation: isolate">
    <path d="M35.81885,12.00977,32.72607,8.86426l-1.75439,1.72558,2.65723,2.70264-.73536.72266L30.23633,11.3125l-2.99561,2.94482-.81347-.82714L32.648,7.31445l3.90625,3.97266Z" fill="#f90"/>
    <path d="M37.23633,19.76074a3.67241,3.67241,0,0,1-2.376,1.18506,3.07992,3.07992,0,0,1-3.08642-3.13916,3.67825,3.67825,0,0,1,1.228-2.35254,3.691,3.691,0,0,1,2.375-1.18994,3.07255,3.07255,0,0,1,3.08692,3.13916A3.686,3.686,0,0,1,37.23633,19.76074Zm-.79688-.81054a2.98259,2.98259,0,0,0,.998-1.67969A1.86375,1.86375,0,0,0,35.49316,15.293a2.98958,2.98958,0,0,0-1.69433.97168,2.979,2.979,0,0,0-.98194,1.66308,1.83022,1.83022,0,0,0,1.93653,1.97754A2.96871,2.96871,0,0,0,36.43945,18.9502Z" fill="#f90"/>
    <path d="M42.773,22.43408l-.0415-.0415a3.994,3.994,0,0,0-.27393-.40039,4.87472,4.87472,0,0,0-.36426-.40821,2.26315,2.26315,0,0,0-.85107-.54394,4.5484,4.5484,0,0,0-1.05664-.24316l-3.313,3.25683-.77246-.78564,4.6665-4.58789.77246.78564-.689.67773a5.38476,5.38476,0,0,1,1.34375.30176,2.51322,2.51322,0,0,1,.87256.57422,4.11907,4.11907,0,0,1,.28125.30664q.08057.10254.23193.31494Z" fill="#f90"/>
    <path d="M46.21289,33.55371l-.76855-.78125.49707-.48877c-.11524-.023-.27442-.05176-.47559-.08691a2.88024,2.88024,0,0,1-.541-.14453,3.31123,3.31123,0,0,1-.604-.29346,3.41675,3.41675,0,0,1-.65234-.53369,2.09355,2.09355,0,0,1-.63379-1.48047,1.97132,1.97132,0,0,1,.63379-1.48584,2.07348,2.07348,0,0,1,1.08252-.6167,2.13476,2.13476,0,0,1,1.15429.14258,4.89934,4.89934,0,0,1,1.26075.773q.65625.53247,1.36132,1.18359l.1211-.11914A1.31462,1.31462,0,0,0,49,29.09277a.95991.95991,0,0,0,.00977-.54052,1.56356,1.56356,0,0,0-.26368-.52784,4.97693,4.97693,0,0,0-.44726-.522,4.655,4.655,0,0,0-.75977-.60889,7.4307,7.4307,0,0,0-1.00781-.55371l-.041-.0415.79688-.78467q.29.16846.791.52881a7.0188,7.0188,0,0,1,.918.78272,5.60041,5.60041,0,0,1,.76172.938,2.3454,2.3454,0,0,1,.34571.90625A1.74284,1.74284,0,0,1,50,29.55957a2.58253,2.58253,0,0,1-.62109.88086Zm.38086-1.91064,1.29883-1.27735q-.37355-.3391-.89356-.78418a6.10146,6.10146,0,0,0-.87988-.65136,1.7703,1.7703,0,0,0-.83594-.25342,1.20845,1.20845,0,0,0-1.1289,1.1748,1.59151,1.59151,0,0,0,.52441.939,2.47477,2.47477,0,0,0,.9043.59814A4.82275,4.82275,0,0,0,46.59375,31.64307Z" fill="#f90"/>
    <path d="M48.48047,35.85986l-.77344-.78515,6.501-6.39112.77246.78516Z" fill="#f90"/>
    <path d="M50.78906,38.208l-.77344-.78516,6.501-6.39111.77246.78515Z" fill="#f90"/>
    <path d="M58.83887,46.396l-.76856-.78125.498-.48877c-.11719-.023-.27539-.05176-.47656-.08692a2.8631,2.8631,0,0,1-.541-.14453,3.33479,3.33479,0,0,1-.60351-.293,3.40556,3.40556,0,0,1-.65235-.53418,2.0896,2.0896,0,0,1-.63379-1.48,1.97414,1.97414,0,0,1,.63379-1.48633,2.07751,2.07751,0,0,1,1.082-.61669,2.13593,2.13593,0,0,1,1.1543.14257,4.91785,4.91785,0,0,1,1.26172.773q.65333.53247,1.36133,1.1836l.12109-.11914a1.30023,1.30023,0,0,0,.34961-.52881.96019.96019,0,0,0,.01172-.54053,1.58076,1.58076,0,0,0-.26465-.52783,4.8671,4.8671,0,0,0-.44727-.52246,4.66946,4.66946,0,0,0-.75878-.60889,7.50658,7.50658,0,0,0-1.00879-.55322l-.041-.042.79785-.78466c.19336.1123.45606.28808.791.52929a7.00747,7.00747,0,0,1,.917.78223,5.58225,5.58225,0,0,1,.7627.938,2.31018,2.31018,0,0,1,.34375.90625,1.72043,1.72043,0,0,1-.10254.89014,2.56506,2.56506,0,0,1-.62012.88085Zm.38086-1.91065,1.2998-1.27734q-.375-.33912-.89453-.78369a6.18259,6.18259,0,0,0-.87891-.65186,1.7738,1.7738,0,0,0-.83691-.25342,1.20944,1.20944,0,0,0-1.12891,1.17481,1.59424,1.59424,0,0,0,.52442.939,2.46459,2.46459,0,0,0,.90429.59815A4.80718,4.80718,0,0,0,59.21973,44.48535Z" fill="#f90"/>
    <path d="M64.57812,51.17188a3.40456,3.40456,0,0,1-2.27246,1.17382,3.11016,3.11016,0,0,1-2.18652-1.11132A7.09168,7.09168,0,0,1,59.459,50.458a7.90214,7.90214,0,0,1-.53515-.8418l.80273-.78809.041.041a8.332,8.332,0,0,0,.41308.793,4.52625,4.52625,0,0,0,.71094.94434,2.71893,2.71893,0,0,0,.749.56933,1.31553,1.31553,0,0,0,1.26758-.03027,2.74334,2.74334,0,0,0,.5752-.44239l.42676-.41992a4.22434,4.22434,0,0,1-1.0918-.26172,2.91114,2.91114,0,0,1-.95117-.6875,2.27121,2.27121,0,0,1-.7002-1.91943A3.69368,3.69368,0,0,1,62.38672,45.25a3.99986,3.99986,0,0,1,1.20508-.85107,3.31382,3.31382,0,0,1,1.207-.28028,2.639,2.639,0,0,1,1.11133.20655,2.74713,2.74713,0,0,1,.9248.61035,3.39921,3.39921,0,0,1,.585.7583,4.1232,4.1232,0,0,1,.32031.82324l.25-.147.72266.73535Zm-.02148-1.5254,2.54492-2.501a4.32784,4.32784,0,0,0-.37011-.78174,3.42092,3.42092,0,0,0-.4668-.59619,1.78181,1.78181,0,0,0-1.43653-.5918,2.64667,2.64667,0,0,0-1.627.86817,2.9718,2.9718,0,0,0-.91992,1.44677,1.43919,1.43919,0,0,0,.49414,1.314,2.69856,2.69856,0,0,0,.80664.55664A3.49658,3.49658,0,0,0,64.55664,49.64648Z" fill="#f90"/>
    <path d="M71.65918,54.93164l-3.37988-3.4375a2.78743,2.78743,0,0,0-.62305.86621A1.93922,1.93922,0,0,0,67.6875,54.043a2.88256,2.88256,0,0,0,.54688.75683,3.644,3.644,0,0,0,1.13183.77051,3.30508,3.30508,0,0,0,1.04981.32031l.041.041-.85644.8418a8.913,8.913,0,0,1-1.07715-.53516,4.6044,4.6044,0,0,1-.96582-.75683A3.51172,3.51172,0,0,1,66.4043,53.0498a3.31232,3.31232,0,0,1,1.14453-2.40722,3.59232,3.59232,0,0,1,2.43164-1.16211,2.99509,2.99509,0,0,1,2.28906.98242,2.64721,2.64721,0,0,1,.87891,1.998,3.10944,3.10944,0,0,1-1.0625,2.05078Zm-.15039-1.35547a1.9505,1.9505,0,0,0,.65039-1.252,1.68011,1.68011,0,0,0-.5791-1.2666A1.91056,1.91056,0,0,0,70.2207,50.418a2.022,2.022,0,0,0-1.33984.48437Z" fill="#f90"/>
    <path d="M75.20117,60.34766a1.77547,1.77547,0,0,1-1.56836.502,3.21951,3.21951,0,0,1-1.82812-1.03906,4.84449,4.84449,0,0,1-.81055-1.07227,5.90972,5.90972,0,0,1-.44336-.99023l.88086-.86621.041.042a4.40578,4.40578,0,0,0,.36914,1.26465,3.58307,3.58307,0,0,0,.69336,1.03515,2.29428,2.29428,0,0,0,.96386.64649.7913.7913,0,0,0,.81348-.22559.746.746,0,0,0,.26172-.57031,2.00239,2.00239,0,0,0-.35742-.84668c-.084-.13574-.19825-.31152-.34082-.52344q-.21534-.31786-.374-.59765a2.288,2.288,0,0,1-.3789-1.34083,1.66649,1.66649,0,0,1,.52343-1.01953,1.76892,1.76892,0,0,1,.65918-.41406,1.83724,1.83724,0,0,1,.81153-.08691,2.44972,2.44972,0,0,1,.89648.28906,3.74149,3.74149,0,0,1,.90918.69629,5.06966,5.06966,0,0,1,.72949.94531,4.52834,4.52834,0,0,1,.45118.957l-.83985.82617-.041-.042a3.89516,3.89516,0,0,0-.34473-1.09863,3.53793,3.53793,0,0,0-.67676-.99414,2.07,2.07,0,0,0-.87988-.56445.81183.81183,0,0,0-1.04.793,1.98151,1.98151,0,0,0,.32031.80274c.10938.17773.23438.37207.37891.585q.21387.31787.34961.54a2.33872,2.33872,0,0,1,.39844,1.26562A1.58882,1.58882,0,0,1,75.20117,60.34766Z" fill="#f90"/>
    <path d="M76.27539,64.13086l-.83789-.85156.88184-.86719.83789.85254Zm6.26172-6.07422-4.61523,4.32422-.69727-.71094,4.39258-4.54883Z" fill="#f90"/>
  </g>
</svg>
