<svg xmlns="http://www.w3.org/2000/svg" width="63" height="63" viewBox="0 0 63 63">
    <g fill="none" fill-rule="evenodd">
        <circle cx="31.5" cy="31.5" r="29.5" stroke="#00AEEF" stroke-width="4"/>
        <g fill="#00AEEF">
            <path d="M35.037 37.128c-.574 1.645-2.077 2.819-3.84 2.819-1.808 0-3.342-1.236-3.88-2.947-4.21 1.434-7.042 5.314-8.288 9.964-.141.527.251 1.036.772 1.036h22.398c.52 0 .913-.509.772-1.036-1.212-4.519-3.92-8.309-7.934-9.836M31.28 33.678a7.721 7.721 0 0 1-4.706-1.592c-2.418-1.95-2.032-5.4-1.241-7.139a1.923 1.923 0 0 1 1.509-1.117 1.91 1.91 0 0 1 1.731.71c1.549 1.943 5.228 2.439 7.862 1.153a.199.199 0 0 0 .109-.204.197.197 0 0 0-.157-.17c-.977-.195-1.69-1.006-1.652-1.91l.024-.008c2.9.123 3.996 1.43 4.13 3.977a7.738 7.738 0 0 1-7.61 6.3m16.525-15.723l-15.551-5.82a2.153 2.153 0 0 0-1.506 0l-15.551 5.82a.3.3 0 0 0 0 .564l1.75.655v5.803h-.228a.321.321 0 0 0-.322.32v3.514c0 .177.144.32.322.32h.453a.321.321 0 0 0 .322-.32v-2.713h.685v2.713c0 .177.144.32.322.32h.453a.321.321 0 0 0 .322-.32v-3.514a.321.321 0 0 0-.322-.32h-.145V19.87l2.51.939v3.67c-.072.483-.11.976-.11 1.478C21.208 31.495 25.726 36 31.28 36c5.554 0 10.072-4.505 10.072-10.042 0-.255-.013-.506-.031-.755l.007-2.404c0-.639-.058-1.236-.163-1.796l6.64-2.484a.3.3 0 0 0 0-.564"/>
        </g>
    </g>
</svg>
