<svg id="Layer_1" data-name="Layer 1" xmlns="http://www.w3.org/2000/svg" width="25" height="25" viewBox="0 0 25 25">
  <circle cx="12.5" cy="12.5" r="12.5" fill="#ca499a"/>
  <g>
    <path d="M12.387,16.586A3.986,3.986,0,1,1,16.372,12.6,3.991,3.991,0,0,1,12.387,16.586Zm0-6.423A2.437,2.437,0,1,0,14.824,12.6,2.439,2.439,0,0,0,12.387,10.163Z" fill="#fff"/>
    <circle cx="16.737" cy="8.409" r="0.98" fill="#fff"/>
    <path d="M15.869,5.962a3.16,3.16,0,0,1,3.156,3.156V15.96a3.159,3.159,0,0,1-3.156,3.156H9.027A3.159,3.159,0,0,1,5.871,15.96V9.118A3.16,3.16,0,0,1,9.027,5.962h6.842m0-1.3H9.027A4.456,4.456,0,0,0,4.571,9.118V15.96a4.456,4.456,0,0,0,4.456,4.456h6.842a4.456,4.456,0,0,0,4.456-4.456V9.118a4.456,4.456,0,0,0-4.456-4.456Z" fill="#fff"/>
  </g>
</svg>
