<svg id="_-ge-spanish-v4b" data-name=" -ge-spanish-v4b" xmlns="http://www.w3.org/2000/svg" width="31" height="30" viewBox="0 0 31 30">
  <title>spanish-v4b</title>
  <path d="M15.5,3.116c6.893,0,12.5,5.032,12.5,11.218S22.393,25.546,15.5,25.546h-.052a13.426,13.426,0,0,1-5.1-1L9.488,24.2l-.824.429A23.5,23.5,0,0,1,4.4,26.339a20.973,20.973,0,0,0,.9-4.689l.067-.735-.43-.6A10.252,10.252,0,0,1,3.01,14.329c0-6.183,5.6-11.213,12.49-11.213m0-1.991c-7.99,0-14.49,5.923-14.49,13.2a12.293,12.293,0,0,0,2.3,7.142c-.29,3.2-1.05,5.57-2.16,6.694a.489.489,0,0,0,.005.694A.5.5,0,0,0,1.49,29h.07a25.625,25.625,0,0,0,8.03-2.611,15.522,15.522,0,0,0,5.858,1.149H15.5c7.99,0,14.5-5.923,14.5-13.2S23.49,1.125,15.5,1.125Z" fill="#fff"/>
  <g>
    <path d="M12.276,12.829a1.4,1.4,0,0,0,.989-2.385,1.4,1.4,0,0,0-1.974,0,1.408,1.408,0,0,0,0,1.974A1.34,1.34,0,0,0,12.276,12.829Z" fill="#fff"/>
    <path d="M13.548,18.612a1.761,1.761,0,0,1-1.139.556c-.912,0-1.03-.39-1.03-.729,0-.185.114-.53.652-1.122a11.367,11.367,0,0,0,.962-1.153,3.187,3.187,0,0,0,.512-1.739,1.813,1.813,0,0,0-.127-.623c-.07-.2-.11-.307-.12-.34l-.052-.182H11.368l.062.3a3.874,3.874,0,0,1,.093.537,2.174,2.174,0,0,1-.154.793,3.754,3.754,0,0,1-.916,1.117,4.27,4.27,0,0,0-1.07,1.387,3.1,3.1,0,0,0-.224,1.136,2.31,2.31,0,0,0,.853,1.86,3.115,3.115,0,0,0,2.048.691,3.973,3.973,0,0,0,2.525-.759l.164-.129L13.787,18.4Z" fill="#fff"/>
    <path d="M17.452,15.92a1.4,1.4,0,0,0,.989,2.385,1.336,1.336,0,0,0,.984-.409,1.408,1.408,0,0,0,0-1.975A1.4,1.4,0,0,0,17.452,15.92Z" fill="#fff"/>
    <path d="M20.7,7.925a3.118,3.118,0,0,0-2.051-.687A4,4,0,0,0,16.125,8l-.165.129.97,1.82.238-.218A1.758,1.758,0,0,1,18.3,9.172c.913,0,1.03.39,1.03.729,0,.185-.11.529-.637,1.112a11.944,11.944,0,0,0-.963,1.157,3.067,3.067,0,0,0-.392.826,3.158,3.158,0,0,0-.134.919,1.823,1.823,0,0,0,.131.627c.075.2.178.518.178.518H19.34l-.06-.3a4.251,4.251,0,0,1-.093-.537,1.984,1.984,0,0,1,.185-.858,4.1,4.1,0,0,1,.853-1.031,5.537,5.537,0,0,0,1.018-1.217,2.693,2.693,0,0,0,.307-1.328A2.308,2.308,0,0,0,20.7,7.925Z" fill="#fff"/>
  </g>
</svg>
