<svg id="_2019-welcome-657-inspiration-redesign-teacher-toolkit-v6c" data-name="2019-welcome-657-inspiration-redesign-teacher-toolkit-v6c" xmlns="http://www.w3.org/2000/svg" viewBox="0 0 71.351 75.906">
  <g id="state_standards" data-name="state standards">
    <path d="M5.128,36.538a2.789,2.789,0,0,1-.162-1.656A154.283,154.283,0,0,0,42.839,36.6q-1.194,1.335-2.388,2.675a1.067,1.067,0,0,0,1.335.034,7.432,7.432,0,0,0,1.036-1.017,1.456,1.456,0,0,1,1.3-.5A1.066,1.066,0,0,0,45.06,38.9a3.239,3.239,0,0,0,1.569-.26,2.83,2.83,0,0,1,1.571-.2,1.022,1.022,0,0,1,.8,1.2,1.652,1.652,0,0,1,1.414,2.318c-.074.165-.175.318-.239.478a.586.586,0,0,0,.038.519.318.318,0,0,0,.439.1q.02-.014.039-.03c.129-.138.071-.382.2-.519a.33.33,0,0,1,.354-.052,2.1,2.1,0,0,1,.716.643,1.16,1.16,0,0,1,.263.763,2.408,2.408,0,0,1-.22.682,3.119,3.119,0,0,0-.088,1.981,8.018,8.018,0,0,1,1.127-.464,6.631,6.631,0,0,0,1-.624,7.439,7.439,0,0,0,1.657-1.675c-.454-.175-.477-.873-.138-1.232a2.306,2.306,0,0,1,1.322-.553,2.187,2.187,0,0,0,1.311-.574,2.612,2.612,0,0,0,.4-1.074,3.652,3.652,0,0,1,.518-1.051,3.854,3.854,0,0,1,1.856-1.4,13.313,13.313,0,0,0,2.1-.639c1.517-.825,1.144-2.938,1.161-4.371a1.4,1.4,0,0,1,.153-.758.926.926,0,0,1,.886-.357A2.484,2.484,0,0,1,66.851,32.8c.432.543.736,1.118,1.194,1.639a1.278,1.278,0,0,1,.408,1.216,1.7,1.7,0,0,1-.663.689,5.27,5.27,0,0,0-1.584,1.93,2.717,2.717,0,0,0-.31,1.582,1.4,1.4,0,0,0,1,1.167c.239.053.566.06.652.294a.414.414,0,0,1-.182.465,2.576,2.576,0,0,1-.5.191c-1.258.464-1.513,2.414-2.808,2.766a1.6,1.6,0,0,0-.73.256,1.046,1.046,0,0,0-.213.767,26.577,26.577,0,0,1-.592,5.245,2.744,2.744,0,0,0-.339-.816A.3.3,0,0,0,62,50.048c-.167-.024-.238.2-.238.368.05.735.68,1.271,1.053,1.914a3.658,3.658,0,0,1-.738,4.043c-.674.957-1.526,1.728-2.223,2.661a6.46,6.46,0,0,0-1.762,4.306,8.919,8.919,0,0,0,2.149,3.682,9.613,9.613,0,0,1,1.85,4.261,1.251,1.251,0,0,1-.284,1.112,1.224,1.224,0,0,1-1.118.108,4.158,4.158,0,0,1-2.256-1.467,6.683,6.683,0,0,1-.891-1.784,5.574,5.574,0,0,0-.788-1.716c-.955-1.2-2.746-1.15-4.128-1.249a24.756,24.756,0,0,0-3.613,0c-.554.043-2.71.07-2.178,1.182.132.275.464.479.432.785s-.327.414-.592.478a29.89,29.89,0,0,1-4.907-.05A6.858,6.858,0,0,0,35.6,73.228a2.467,2.467,0,0,0,.021,1.143c.1.371.415.675.509,1.01.026.1-1.056-.122-1.166-.172a4.591,4.591,0,0,1-1.01-.675,9.723,9.723,0,0,1-1.626-1.84c-.458-.643-.883-1.311-1.356-1.945a5.84,5.84,0,0,0-1.483-1.595,1.073,1.073,0,0,0-1.23.047c-.391.359-.37.981-.94,1.185a1.105,1.105,0,0,1-.836-.082c-1.927-.928-2.773-3.256-4.716-4.21a1.379,1.379,0,0,0-1.512,0c-.121.112-.207.26-.332.368a1.363,1.363,0,0,1-.955.225A15.366,15.366,0,0,1,13.8,65.51c-.839-.33-1.658-.7-2.467-1.093-.411-.2-.817-.426-1.235-.608a3.551,3.551,0,0,0-1.067-.192,4.263,4.263,0,0,1-.907-.1c-1.254-.378-1.536-2.043-2.574-2.718A7.406,7.406,0,0,1,2.53,57.746a17.3,17.3,0,0,1-.659-2.835c-.265-1.1-.767-2.129-1.055-3.222A11.652,11.652,0,0,1,.749,46.6c.659-3.564,2.626-6.978,2.337-10.687l1.827.479" fill="#ffa748" stroke="#ef6630" stroke-miterlimit="10"/>
  </g>
  <ellipse cx="32.091" cy="55.616" rx="5.581" ry="2.411" fill="#fc9000"/>
  <g>
    <path d="M36.923.519A2.378,2.378,0,0,0,35.092,4.7L30.336,54.584A1.236,1.236,0,0,0,32.8,54.8L37.631,5.036A2.378,2.378,0,0,0,36.923.519Z" fill="#ffcc94" stroke="#ef6630" stroke-miterlimit="10"/>
    <path d="M49.632,4.666,48.7,22.577c6.49-9.008,10.669,3.453,19.755-.182L64.3,14.089l5.659-7.321C63.572,8.871,50.878-2.966,49.632,4.666Z" fill="#ffc999" stroke="#ef6630" stroke-miterlimit="10"/>
    <path d="M55.579,24.158,48.466,21.2,50.127,3.7c1.143,5.3,7.892-.26,7.708,3.682Z" fill="#ef6630"/>
    <path d="M34.524,7.106,32.811,25.329c7.372-3.79,11.354,3.2,23.285,2.025L57.327,8.036C50.865,13.076,43.57,4.594,34.524,7.106Z" fill="#ffd2a6" stroke="#ef6630" stroke-miterlimit="10"/>
    <polygon points="45.841 11.992 46.986 15.284 50.347 16.207 47.57 18.313 47.731 21.795 44.869 19.805 41.608 21.034 42.616 17.697 40.44 14.975 43.924 14.903 45.841 11.992" fill="#ff8000"/>
  </g>
</svg>
