<svg xmlns="http://www.w3.org/2000/svg" width="401" height="175">
    <defs>
        <radialGradient id="a">
            <stop offset="0%"/>
            <stop offset="100%" stop-color="#FFF"/>
        </radialGradient>
        <radialGradient id="b">
            <stop offset="0%" stop-color="#12100C"/>
            <stop offset="100%" stop-color="#FFF"/>
        </radialGradient>
    </defs>
    <path fill="url(#a)" fill-rule="evenodd" d="M70.453 35.211c38.91 0 70.453 30.957 70.453 69.144 0 38.188-31.543 69.145-70.453 69.145C31.543 173.5 0 142.543 0 104.355c0-38.187 31.543-69.144 70.453-69.144z" opacity=".149"/>
    <path fill="url(#b)" fill-rule="evenodd" d="M321.594 37.422c43.302 0 78.406 30.462 78.406 68.039S364.896 173.5 321.594 173.5c-43.303 0-78.406-30.462-78.406-68.039s35.103-68.039 78.406-68.039z" opacity=".149"/>
    <path fill="#FFF" fill-rule="evenodd" stroke="#CB94FF" d="M339.057 69.91c.091-1.129.15-2.269.15-3.422 0-22.535-17.877-40.803-39.929-40.803a39.105 39.105 0 0 0-20.5 5.787c-5.637-15.546-20.276-26.627-37.45-26.627-9.695 0-18.582 3.533-25.499 9.406-.803.302-1.6.621-2.39.959-82.71-42.604-151.261 17.336-156.514 54.006-17.838 6.744-30.789 26.972-30.789 50.879 0 29.422 19.665 53.405 43.864 53.405h254c24.199 0 44.182-23.983 44.182-53.405 0-23.155-12.154-42.842-29.125-50.185z"/>
</svg>
