<svg id="_2019-welcome-657-inspiration-redesign-teacher-toolkit-v6c" data-name="2019-welcome-657-inspiration-redesign-teacher-toolkit-v6c" xmlns="http://www.w3.org/2000/svg" viewBox="0 0 77.721 62.119">
  <g>
    <path d="M77.167,17.924l-1.623-.774a.573.573,0,0,0-.286-.049c.123-.691.247-1.386.371-2.092a.591.591,0,0,0-.466-.68L72.6,13.822c.316-2.452.608-4.978.9-7.736a.59.59,0,0,0-.525-.648.553.553,0,0,0-.141.012c-9.55-4.609-19.664,1.389-24.3,6.641C45.752,6.25,38.489-1.977,26.987.668a.6.6,0,0,0-.118-.046.591.591,0,0,0-.682.479c-.494,2.83-.9,5.373-1.266,7.859-.284-.031-.59-.085-.908-.151A8.008,8.008,0,0,0,22.5,8.6a.59.59,0,0,0-.575.516c-.216,1.729-.405,3.282-.581,4.751l-1.926.354a.589.589,0,0,0-.48.524L16.567,39.626a.581.581,0,0,0,.258.534c.181.591.746,3.278.976,4.6a.589.589,0,0,0,.807.442c9.069-3.779,14.593-2.277,20.564,1.372a.588.588,0,0,0,.81-.2.577.577,0,0,0,.076-.319,4.127,4.127,0,0,1,3.805-1.641,4.341,4.341,0,0,1,3.1,3.022.58.58,0,0,0,.078.148.585.585,0,0,0-.026.434.591.591,0,0,0,.747.369c.106-.035,10.776-3.375,20.341,3.163a.566.566,0,0,0,.124.06.588.588,0,0,0,.252.375.589.589,0,0,0,.816-.165l2.433-3.661.005-.011a.518.518,0,0,0,.034-.076.579.579,0,0,0,.043-.111l.006-.016,5.679-29.379A.589.589,0,0,0,77.167,17.924Z" fill="#b2ed7e"/>
    <path d="M73.226,13.822c.317-2.452.608-4.978.9-7.736a.59.59,0,0,0-.524-.648.557.557,0,0,0-.142.012c-9.55-4.609-19.663,1.389-24.3,6.641C46.378,6.25,39.115-1.977,27.613.668A.578.578,0,0,0,27.5.622a.591.591,0,0,0-.682.479c-.494,2.83-.9,5.373-1.265,7.859-.285-.031-2.117,16.562-1.758,17.778,3.1-2.81,23.613,11.794,21.821,14.311,0,0,11.009-12.813,22.94-8.827Z" fill="#daf9bb"/>
    <g>
      <path d="M77.385,17.765l-1.623-.774a.572.572,0,0,0-.286-.048c.123-.692.247-1.387.371-2.092a.59.59,0,0,0-.466-.68l-2.563-.508c.316-2.451.608-4.978.9-7.736a.589.589,0,0,0-.525-.647.553.553,0,0,0-.141.012C63.5.683,53.385,6.68,48.751,11.932,45.97,6.091,38.707-2.135,27.205.51a.548.548,0,0,0-.118-.047.591.591,0,0,0-.682.479c-.494,2.831-.9,5.373-1.266,7.86-.284-.032-.59-.086-.908-.151a8.012,8.012,0,0,0-1.516-.206.59.59,0,0,0-.575.516c-.216,1.73-.405,3.282-.581,4.752l-1.926.354a.589.589,0,0,0-.48.524L16.785,39.467a.582.582,0,0,0,.258.535c.181.59.746,3.277.976,4.595a.589.589,0,0,0,.807.443c9.069-3.78,14.593-2.278,20.564,1.372a.59.59,0,0,0,.81-.2.575.575,0,0,0,.076-.319,4.127,4.127,0,0,1,3.805-1.641,4.342,4.342,0,0,1,3.1,3.023.58.58,0,0,0,.078.148.582.582,0,0,0-.026.433.591.591,0,0,0,.747.37c.106-.036,10.776-3.376,20.341,3.162a.566.566,0,0,0,.124.06.589.589,0,0,0,1.068.211L71.943,48l0-.011a.475.475,0,0,0,.034-.076.57.57,0,0,0,.043-.11l.006-.017L77.71,18.409A.59.59,0,0,0,77.385,17.765Zm-2.8-2.55c-1.337,7.572-2.574,14.27-4.8,23.836-9.017-4.821-18.63-1.027-22.9,1.491,3.883-3.911,12.076-11.566,21.853-6.956a.446.446,0,0,0,.07.017.572.572,0,0,0,.068.028.722.722,0,0,0,.08.008h.014l.019,0a.588.588,0,0,0,.383-.144c.015-.013.025-.031.039-.045a.608.608,0,0,0,.094-.126c0-.009.013-.014.017-.023a.407.407,0,0,0,.014-.058.457.457,0,0,0,.031-.08c1.4-7.143,2.328-12.588,3.1-18.332ZM41.368,43.544c-8.245-6.333-19.767-3.868-22.823-2.439-.11-.489-.207-.862-.291-1.138,2.527-1.063,14.83-5.539,24.5,3.13A5.04,5.04,0,0,0,41.368,43.544ZM72.487,6.33c-.287,2.708-.578,5.205-.895,7.629a.4.4,0,0,0-.024.057.642.642,0,0,0,0,.124c-.753,5.724-1.66,11.1-3.017,18.082-10.69-4.485-19.622,4.567-23.03,8.024l-.2.2L49.1,13.333l.008-.006C53.216,8.233,63.164,1.869,72.487,6.33ZM27.479,1.656C38.633-.906,45.56,7.511,47.957,13.026l-3.779,27.1c-1.885-3.57-6.275-11.585-20.363-13.388-.009,0-.017,0-.025,0,.57-3.838,1.02-7.1,1.438-10.139C25.928,11.516,26.538,7.1,27.479,1.656ZM23.24,9.665c.24.035.5.088.755.14.327.067.654.121.974.16-.308,2.124-.6,4.234-.908,6.473-.432,3.139-.9,6.519-1.5,10.53a.589.589,0,0,0,.5.67.64.64,0,0,0,.088.007.545.545,0,0,0,.1-.018.577.577,0,0,0,.418.278c13.658,1.748,17.632,9.283,19.542,12.9l.041.078C38.72,36.474,33.056,32.107,20.438,33c.717-5.733,1.171-9.619,1.611-13.383C22.415,16.489,22.765,13.492,23.24,9.665Zm-2.956,5.48,1.129-.207c-.185,1.554-.358,3.036-.534,4.545-.458,3.916-.931,7.965-1.7,14.09a.589.589,0,0,0,.16.481.581.581,0,0,0,.475.179c10.888-.926,16.4,1.991,20.649,5.674-9.238-5.736-19.584-2.269-22.43-1.121ZM19.052,43.676c-.117-.652-.222-1.2-.318-1.679,2.227-1.166,13.687-3.936,21.812,2.04a6.161,6.161,0,0,0-1.109,1.034C33.514,41.568,27.9,40.169,19.052,43.676ZM48.3,46.924l0-.017a6.524,6.524,0,0,0-.52-1.15.379.379,0,0,0,.207-.452.542.542,0,0,1,.271-.122,38.221,38.221,0,0,1,9.4-.881,19.225,19.225,0,0,1,11.78,5.344l-.5.746C60.349,44.546,50.9,46.283,48.3,46.924ZM69.929,48.9a20.089,20.089,0,0,0-12.208-5.482,38.975,38.975,0,0,0-9.62.892,1.314,1.314,0,0,0-.86.515c-.015.024-.017.052-.03.077a5.265,5.265,0,0,0-1.682-1.38C60.565,39.19,69.005,46.146,70.7,47.75ZM71.08,46.5A21.411,21.411,0,0,0,65,42.812c-3.809-1.553-9.955-2.861-18.2-.844a26.048,26.048,0,0,1,6.681-3.022c4.194-1.239,10.444-1.983,16.4,1.51a.589.589,0,0,0,.872-.374c2.08-8.86,3.314-15.259,4.524-22.017l1.191.568Z" fill="#4db000"/>
      <path d="M32.089,8.083A17.578,17.578,0,0,1,44.078,15.71a.589.589,0,0,0,.969-.669,18.749,18.749,0,0,0-12.8-8.125.589.589,0,1,0-.155,1.167Z" fill="#4db000"/>
      <path d="M31.352,13.369a16.5,16.5,0,0,1,11.664,7.209.589.589,0,0,0,.969-.669A17.645,17.645,0,0,0,31.506,12.2a.589.589,0,1,0-.154,1.168Z" fill="#4db000"/>
      <path d="M30.627,18.565A15.708,15.708,0,0,1,42.1,25.473a.589.589,0,0,0,.97-.669A16.828,16.828,0,0,0,30.781,17.4a.589.589,0,0,0-.154,1.168Z" fill="#4db000"/>
      <path d="M34.469,24.345a.589.589,0,1,0-.309,1.136c3.025.824,4.741,2.077,6.8,4.969a.59.59,0,0,0,.481.247.583.583,0,0,0,.341-.109.589.589,0,0,0,.138-.822C39.706,26.658,37.757,25.239,34.469,24.345Z" fill="#4db000"/>
      <path d="M52.205,15.386a.586.586,0,0,0,.374-.134A17.586,17.586,0,0,1,66.2,11.2a.6.6,0,0,0,.668-.5.589.589,0,0,0-.5-.668A18.744,18.744,0,0,0,51.83,14.343a.589.589,0,0,0,.375,1.043Z" fill="#4db000"/>
      <path d="M51.894,20.36a.592.592,0,0,0,.375-.135,16.494,16.494,0,0,1,13.192-3.743.6.6,0,0,0,.668-.5.589.589,0,0,0-.5-.668,17.651,17.651,0,0,0-14.112,4,.59.59,0,0,0,.375,1.044Z" fill="#4db000"/>
      <path d="M51.439,25.319a.586.586,0,0,0,.374-.135,15.712,15.712,0,0,1,12.923-3.505.6.6,0,0,0,.668-.5.588.588,0,0,0-.5-.668,16.816,16.816,0,0,0-13.842,3.763.589.589,0,0,0,.375,1.043Z" fill="#4db000"/>
      <path d="M50.682,30.047a.586.586,0,0,0,.386-.145c2.7-2.35,4.664-3.183,7.8-3.3a.589.589,0,1,0-.044-1.177c-3.409.129-5.642,1.068-8.534,3.59a.59.59,0,0,0,.388,1.034Z" fill="#4db000"/>
    </g>
  </g>
  <g>
    <path d="M5.037,9.99l-1.644-2.8a1.213,1.213,0,0,1,.432-1.662L1.207,7.063A1.215,1.215,0,0,0,.774,8.726l1.645,2.8Z" fill="#52c300" opacity="0.29"/>
    <rect x="14.208" y="10.745" width="10.84" height="41.969" transform="translate(-13.363 14.304) rotate(-30.416)" fill="#8bdd4a"/>
    <rect x="14.746" y="12.725" width="3.018" height="41.969" transform="translate(-14.829 12.869) rotate(-30.416)" fill="#52c300" opacity="0.29"/>
    <polygon points="4.33 16.377 1.722 11.936 2.419 11.527 10.374 6.857 11.071 6.448 13.678 10.889 4.33 16.377" fill="#fff"/>
    <polygon points="37.108 61.512 32.002 57.552 36.139 55.123 37.108 61.512" fill="#b2ed7e"/>
    <polygon points="32.002 57.552 25.577 52.571 34.926 47.083 36.139 55.123 32.002 57.552" fill="#fff"/>
    <g>
      <path d="M.9,6.54,6.759,3.1a1.825,1.825,0,0,1,2.494.649L10.9,6.55a.608.608,0,0,1-1.048.615l-1.645-2.8a.607.607,0,0,0-.831-.216l-5.86,3.44a.607.607,0,0,0-.216.831l1.645,2.8a.608.608,0,0,1-1.048.615L.25,9.033A1.824,1.824,0,0,1,.9,6.54Z" fill="#4db000"/>
      <path d="M4.022,15.854a.607.607,0,0,1,.831.216L26.1,52.263a.607.607,0,0,1-1.047.615L3.806,16.685A.607.607,0,0,1,4.022,15.854Z" fill="#4db000"/>
      <path d="M13.37,10.366a.607.607,0,0,1,.831.216L35.449,46.775a.607.607,0,1,1-1.047.615L13.154,11.2A.607.607,0,0,1,13.37,10.366Z" fill="#4db000"/>
      <path d="M25.27,52.047l9.348-5.488a.607.607,0,0,1,.908.433l2.183,14.429a.607.607,0,0,1-.973.571L25.205,53.05a.606.606,0,0,1,.065-1Zm9.189-3.986-7.8,4.579L36.28,60.1Z" fill="#4db000"/>
      <path d="M1.415,11.413l9.348-5.488a.607.607,0,0,1,.831.216L14.2,10.582a.607.607,0,0,1-.216.831L4.637,16.9a.607.607,0,0,1-.831-.216L1.2,12.244A.607.607,0,0,1,1.415,11.413ZM10.854,7.28l-8.3,4.873,1.992,3.393,8.3-4.873Z" fill="#4db000"/>
      <path d="M31.7,57.029,35.832,54.6a.607.607,0,1,1,.615,1.047l-4.138,2.429a.607.607,0,1,1-.614-1.047Z" fill="#4db000"/>
      <path d="M8.7,13.11a.607.607,0,0,1,.831.216L30.775,49.519a.607.607,0,1,1-1.047.615L8.48,13.941A.607.607,0,0,1,8.7,13.11Z" fill="#4db000"/>
    </g>
  </g>
</svg>
