<svg id="Layer_1" data-name="Layer 1" xmlns="http://www.w3.org/2000/svg" width="25" height="25" viewBox="0 0 25 25">
  <defs>
    <style>
      .cls-1 {
        fill: #15acf7;
      }

      .cls-2 {
        fill: #fff;
      }
    </style>
  </defs>
  <title>twitter</title>
  <g>
    <circle class="cls-1" cx="12.5" cy="12.5" r="12.5"/>
    <path class="cls-2" d="M20.908,8.292a6.47,6.47,0,0,1-1.848.5A3.164,3.164,0,0,0,20.476,7.04a6.51,6.51,0,0,1-2.042.767,3.235,3.235,0,0,0-2.347-1,3.19,3.19,0,0,0-3.215,3.167,3.27,3.27,0,0,0,.081.723,9.192,9.192,0,0,1-6.627-3.31A3.123,3.123,0,0,0,5.89,8.979a3.159,3.159,0,0,0,1.43,2.635,3.234,3.234,0,0,1-1.455-.4c0,.013,0,.027,0,.041a3.183,3.183,0,0,0,2.58,3.105,3.318,3.318,0,0,1-.848.111,3.164,3.164,0,0,1-.6-.056,3.21,3.21,0,0,0,3,2.2,6.577,6.577,0,0,1-4.758,1.311,9.207,9.207,0,0,0,4.93,1.422,9.013,9.013,0,0,0,9.147-9.01c0-.136,0-.275-.009-.409A6.522,6.522,0,0,0,20.908,8.292Z"/>
  </g>
</svg>
